<svg width="209" height="107" viewBox="0 0 209 107" fill="none" xmlns="http://www.w3.org/2000/svg">
<path d="M98.95 66.33H101.71V66.84H99.51V68.15H101.36V68.66H99.51V70.72H98.95V66.33Z" fill="#48313D"/>
<path d="M103.85 66.33H106.59V66.84H104.42V68.15H106.21V68.66H104.42V70.22H106.59V70.73H103.85V66.33Z" fill="#48313D"/>
<path d="M109.19 69.33C109.3 69.87 109.56 70.27 110.15 70.27C110.61 70.27 110.98 70.02 110.98 69.53C110.98 68.99 110.52 68.86 110.1 68.68C109.46 68.41 108.85 68.24 108.85 67.42C108.85 66.68 109.45 66.27 110.14 66.27C110.87 66.27 111.3 66.69 111.48 67.37L110.94 67.53C110.84 67.1 110.61 66.8 110.13 66.8C109.77 66.8 109.41 66.99 109.41 67.38C109.41 67.79 109.66 67.91 110 68.06L110.94 68.47C111.34 68.69 111.55 69.04 111.55 69.5C111.55 70.33 110.97 70.81 110.16 70.81C109.34 70.81 108.83 70.29 108.69 69.5L109.19 69.33Z" fill="#48313D"/>
<path d="M114.9 66.84H113.69V66.33H116.66V66.84H115.47V70.72H114.91V66.84H114.9Z" fill="#48313D"/>
<path d="M119.32 70.22H119.94V66.84H119.32V66.33H121.12V66.84H120.5V70.22H121.12V70.73H119.32V70.22Z" fill="#48313D"/>
<path d="M126.47 66.23L127.01 66.43L125.32 70.84H125.22L123.53 66.43L124.07 66.23L125.27 69.45L126.47 66.23Z" fill="#48313D"/>
<path d="M129.56 69.53L129.15 70.84L128.59 70.64L129.97 66.34H130.69L132.07 70.64L131.51 70.84L131.11 69.53H129.56ZM130.33 66.99L129.71 69.02H130.96L130.33 66.99Z" fill="#48313D"/>
<path d="M134.29 66.33H134.85V70.21H137.15V70.72H134.29V66.33Z" fill="#48313D"/>
<path d="M144.6 70.22H145.22V66.84H144.6V66.33H146.4V66.84H145.78V70.22H146.4V70.73H144.6V70.22Z" fill="#48313D"/>
<path d="M149.09 66.33H149.79L151.49 70.03L151.51 70.01L151.46 68.87V66.33H152.02V70.72H151.32L149.62 67.02L149.6 67.04L149.65 68.19V70.73H149.09V66.33Z" fill="#48313D"/>
<path d="M155.34 66.84H154.13V66.33H157.1V66.84H155.91V70.72H155.35V66.84H155.34Z" fill="#48313D"/>
<path d="M159.46 66.33H162.2V66.84H160.03V68.15H161.82V68.66H160.03V70.22H162.2V70.73H159.46V66.33Z" fill="#48313D"/>
<path d="M164.45 66.33H165.94C166.67 66.33 167.25 66.68 167.25 67.53C167.25 68.07 166.89 68.6 166.36 68.76L167.44 70.54L166.95 70.84L165.83 68.85H165.01V70.73H164.45V66.33ZM165.76 68.34C166.31 68.34 166.67 68.03 166.67 67.53C166.67 67.13 166.43 66.84 165.93 66.84H165.02V68.34H165.76Z" fill="#48313D"/>
<path d="M169.31 66.33H170.01L171.71 70.03L171.73 70.01L171.68 68.87V66.33H172.24V70.72H171.54L169.84 67.02L169.82 67.04L169.87 68.19V70.73H169.31V66.33Z" fill="#48313D"/>
<path d="M175.06 69.53L174.65 70.84L174.09 70.64L175.47 66.34H176.19L177.57 70.64L177.01 70.84L176.61 69.53H175.06ZM175.84 66.99L175.22 69.02H176.47L175.84 66.99Z" fill="#48313D"/>
<path d="M182.47 69.88C182.12 70.44 181.69 70.8 181.01 70.8C179.73 70.8 179.32 69.62 179.32 68.53C179.32 66.78 180.25 66.25 180.95 66.25C181.63 66.25 182.03 66.6 182.34 67.19L181.83 67.45C181.64 67.1 181.39 66.78 180.96 66.78C180.08 66.78 179.91 67.84 179.91 68.52C179.91 69.2 180.07 70.26 180.96 70.26C181.47 70.26 181.74 69.95 182 69.55L182.47 69.88Z" fill="#48313D"/>
<path d="M185.04 70.22H185.66V66.84H185.04V66.33H186.84V66.84H186.22V70.22H186.84V70.73H185.04V70.22Z" fill="#48313D"/>
<path d="M192.56 68.53C192.56 68.88 192.53 70.8 191 70.8C190.29 70.8 189.44 70.29 189.44 68.53C189.44 66.78 190.27 66.25 191 66.25C191.7 66.26 192.56 66.76 192.56 68.53ZM190.03 68.53C190.03 69.17 190.15 70.27 191 70.27C191.85 70.27 191.97 69.17 191.97 68.53C191.97 67.88 191.85 66.79 191 66.79C190.15 66.79 190.03 67.89 190.03 68.53Z" fill="#48313D"/>
<path d="M194.59 66.33H195.29L196.99 70.03L197.01 70.01L196.96 68.87V66.33H197.52V70.72H196.82L195.12 67.02L195.1 67.04L195.15 68.19V70.73H194.59V66.33Z" fill="#48313D"/>
<path d="M200.34 69.53L199.93 70.84L199.37 70.64L200.75 66.34H201.47L202.85 70.64L202.29 70.84L201.89 69.53H200.34ZM201.11 66.99L200.49 69.02H201.74L201.11 66.99Z" fill="#48313D"/>
<path d="M205.07 66.33H205.63V70.21H207.93V70.72H205.07V66.33Z" fill="#48313D"/>
<path d="M134.19 32.5C133.99 32.95 133.77 33.4 133.58 33.85C133.09 34.97 132.59 36.08 132.14 37.22C131.92 37.79 131.49 37.68 131.08 37.69C130.67 37.7 130.3 37.71 130.1 37.19C129.51 35.72 128.85 34.27 128.22 32.82C128.18 32.72 128.11 32.62 127.91 32.53C127.88 32.77 127.82 33.01 127.82 33.25C127.81 35.58 127.8 37.9 127.83 40.23C127.84 40.82 127.65 41.02 127.06 40.99C126.31 40.95 125.55 40.97 124.8 40.98C124.42 40.99 124.25 40.89 124.25 40.47C124.26 35.35 124.26 30.23 124.25 25.11C124.25 24.71 124.39 24.57 124.79 24.57C125.71 24.59 126.63 24.59 127.54 24.57C127.93 24.56 128.1 24.72 128.24 25.09C129.09 27.31 129.97 29.53 130.84 31.74C130.89 31.88 130.98 32.01 131.14 32.31C131.34 31.86 131.49 31.57 131.61 31.26C132.42 29.2 133.24 27.13 134.02 25.06C134.16 24.68 134.37 24.57 134.74 24.57C135.6 24.58 136.46 24.6 137.31 24.56C137.85 24.53 138.01 24.72 138.01 25.26C137.99 28.38 138 31.5 138 34.62C138 36.52 137.99 38.42 138.01 40.31C138.02 40.81 137.88 41 137.36 40.98C136.61 40.94 135.85 40.94 135.1 40.98C134.58 41 134.43 40.8 134.44 40.31C134.46 37.96 134.45 35.62 134.44 33.27C134.44 33.02 134.39 32.77 134.37 32.53C134.31 32.52 134.25 32.51 134.19 32.5Z" fill="#48313D"/>
<path d="M154.11 33.45C154.13 33.22 154.16 33 154.16 32.77C154.16 30.26 154.17 27.75 154.15 25.24C154.15 24.74 154.29 24.55 154.81 24.57C155.6 24.61 156.4 24.59 157.2 24.57C157.6 24.56 157.79 24.68 157.79 25.13C157.78 30.23 157.78 35.33 157.79 40.43C157.79 40.87 157.62 40.99 157.21 40.99C156.27 40.97 155.33 40.97 154.4 40.99C154 41 153.79 40.86 153.63 40.47C152.52 37.8 151.39 35.14 150.26 32.48C150.22 32.39 150.17 32.31 149.97 32.22C149.94 32.45 149.87 32.69 149.87 32.92C149.86 35.37 149.85 37.82 149.88 40.26C149.89 40.82 149.71 41.02 149.14 40.99C148.39 40.95 147.63 40.96 146.88 40.99C146.48 41 146.29 40.9 146.29 40.45C146.3 35.35 146.3 30.25 146.29 25.15C146.29 24.73 146.42 24.57 146.85 24.58C147.77 24.6 148.69 24.61 149.6 24.58C150.08 24.56 150.28 24.78 150.45 25.18C151.52 27.75 152.6 30.32 153.68 32.89C153.76 33.09 153.87 33.27 153.97 33.47C154.02 33.46 154.07 33.45 154.11 33.45Z" fill="#48313D"/>
<path d="M176.62 32.23C176.59 32.48 176.55 32.73 176.55 32.98C176.54 35.41 176.53 37.83 176.56 40.26C176.57 40.82 176.39 41.02 175.83 40.99C175.08 40.95 174.32 40.96 173.57 40.99C173.17 41 172.98 40.9 172.98 40.45C172.99 35.35 172.99 30.25 172.98 25.15C172.98 24.73 173.11 24.57 173.54 24.58C174.46 24.6 175.38 24.61 176.29 24.58C176.77 24.56 176.97 24.78 177.14 25.18C178.21 27.75 179.29 30.32 180.37 32.89C180.45 33.09 180.56 33.27 180.8 33.45C180.82 33.22 180.85 33 180.85 32.77C180.85 30.26 180.86 27.75 180.84 25.24C180.84 24.74 180.98 24.55 181.49 24.57C182.28 24.61 183.08 24.59 183.88 24.57C184.28 24.56 184.47 24.68 184.47 25.12C184.46 30.22 184.46 35.32 184.47 40.42C184.47 40.86 184.3 40.98 183.89 40.98C182.95 40.96 182.01 40.96 181.08 40.98C180.68 40.99 180.47 40.85 180.31 40.46C179.2 37.79 178.07 35.13 176.94 32.47C176.9 32.38 176.85 32.3 176.8 32.22C176.74 32.23 176.68 32.23 176.62 32.23Z" fill="#48313D"/>
<path d="M112.88 24.67C113.09 24.63 113.22 24.59 113.36 24.59C115.22 24.59 117.07 24.59 118.93 24.58C119.33 24.58 119.51 24.73 119.59 25.13C120.47 29.54 121.36 33.95 122.25 38.36C122.42 39.19 122.56 40.03 122.74 40.99C121.96 40.99 121.24 40.99 120.51 40.99C119.07 40.99 119.08 40.99 118.89 39.52C118.83 39.08 118.71 38.64 118.66 38.2C118.62 37.84 118.43 37.71 118.09 37.71C117.15 37.71 116.21 37.71 115.28 37.71C114.91 37.71 114.75 37.88 114.69 38.26C114.57 39.04 114.41 39.82 114.23 40.6C114.2 40.74 114.04 40.97 113.94 40.97C112.85 41 111.75 40.99 110.57 40.99C110.77 40.01 110.95 39.12 111.14 38.24C111.69 35.67 112.24 33.11 112.79 30.54C112.93 29.88 113.03 29.21 113.25 28.58C113.65 27.39 113.17 26.3 112.97 25.17C112.94 25.02 112.92 24.88 112.88 24.67ZM116.86 28.01C116.79 28 116.73 28 116.66 27.99C116.55 28.52 116.43 29.06 116.32 29.59C116.04 31.03 115.76 32.46 115.48 33.9C115.41 34.27 115.53 34.43 115.91 34.42C116.38 34.41 116.85 34.39 117.31 34.43C117.86 34.47 117.98 34.22 117.89 33.74C117.71 32.74 117.55 31.74 117.37 30.74C117.21 29.83 117.03 28.92 116.86 28.01Z" fill="#48313D"/>
<path d="M171.37 40.97C170.31 40.97 169.22 40.98 168.13 40.95C168.03 40.95 167.87 40.72 167.84 40.57C167.67 39.79 167.51 39.02 167.39 38.23C167.33 37.85 167.17 37.69 166.8 37.69C165.88 37.69 164.97 37.69 164.05 37.69C163.66 37.69 163.47 37.84 163.41 38.25C163.29 39.03 163.13 39.81 162.95 40.59C162.92 40.73 162.75 40.95 162.65 40.95C161.56 40.98 160.47 40.97 159.3 40.97C159.5 39.98 159.68 39.09 159.87 38.2C160.42 35.63 160.97 33.07 161.52 30.5C161.66 29.84 161.76 29.17 161.98 28.54C162.38 27.35 161.89 26.26 161.7 25.13C161.68 24.99 161.65 24.86 161.62 24.65C161.85 24.62 162.04 24.58 162.23 24.58C164 24.57 165.78 24.59 167.55 24.57C168.06 24.56 168.25 24.76 168.34 25.25C168.85 27.93 169.41 30.6 169.95 33.27C170.45 35.76 170.95 38.26 171.44 40.75C171.44 40.8 171.41 40.84 171.37 40.97ZM165.59 28.01C165.55 28 165.5 28 165.46 27.99C165.39 28.14 165.3 28.29 165.26 28.45C164.9 30.29 164.55 32.12 164.2 33.96C164.14 34.28 164.26 34.42 164.58 34.41C165.05 34.4 165.52 34.41 165.98 34.41C166.66 34.41 166.71 34.35 166.6 33.66C166.43 32.64 166.25 31.62 166.07 30.6C165.92 29.74 165.75 28.88 165.59 28.01Z" fill="#48313D"/>
<path d="M102.36 32.78C102.36 34.19 102.38 35.6 102.35 37C102.34 37.56 102.55 37.78 103.1 37.74C103.65 37.71 104.2 37.72 104.75 37.73C105.18 37.74 105.39 37.56 105.38 37.11C105.36 36.48 105.34 35.84 105.4 35.21C105.42 35.01 105.63 34.71 105.81 34.67C106.67 34.43 107.56 34.28 108.43 34.07C108.79 33.98 108.93 34.11 108.93 34.45C108.92 35.98 108.97 37.51 108.88 39.04C108.82 40.21 107.94 40.96 106.75 40.97C104.81 40.99 102.87 40.99 100.94 40.97C99.7 40.96 98.8 40.08 98.8 38.85C98.78 34.79 98.78 30.73 98.8 26.67C98.8 25.45 99.67 24.6 100.89 24.58C102.87 24.56 104.85 24.56 106.83 24.58C107.96 24.59 108.79 25.31 108.88 26.44C108.96 27.47 108.93 28.52 108.92 29.56C108.92 29.71 108.74 29.95 108.6 29.99C107.68 30.24 106.74 30.46 105.81 30.67C105.47 30.75 105.38 30.55 105.38 30.26C105.38 29.67 105.36 29.08 105.39 28.49C105.42 27.95 105.18 27.76 104.66 27.79C104.11 27.82 103.56 27.82 103.01 27.79C102.53 27.77 102.35 27.96 102.36 28.43C102.37 29.88 102.36 31.33 102.36 32.78Z" fill="#48313D"/>
<path d="M206.2 31.23C205.97 32.25 205.77 33.2 205.52 34.14C205.49 34.26 205.21 34.37 205.04 34.37C204.41 34.4 203.77 34.41 203.14 34.38C202.65 34.36 202.49 34.56 202.5 35.03C202.52 35.68 202.53 36.34 202.5 36.99C202.48 37.54 202.67 37.76 203.24 37.75C204.59 37.72 205.93 37.74 207.28 37.74C208.08 37.74 208.09 37.75 208.09 38.57C208.09 39.18 208.08 39.79 208.09 40.41C208.1 40.82 207.97 40.99 207.53 40.99C204.84 40.98 202.14 40.98 199.45 40.99C199.04 40.99 198.92 40.84 198.93 40.45C198.94 35.35 198.94 30.25 198.93 25.15C198.93 24.73 199.07 24.58 199.5 24.58C202.17 24.59 204.85 24.59 207.52 24.58C207.94 24.58 208.11 24.73 208.1 25.15C208.08 25.84 208.08 26.54 208.1 27.23C208.11 27.65 207.95 27.81 207.52 27.8C206.09 27.78 204.66 27.82 203.24 27.78C202.66 27.77 202.48 27.99 202.51 28.53C202.54 29.18 202.53 29.84 202.51 30.49C202.5 30.98 202.69 31.19 203.19 31.17C203.94 31.14 204.7 31.16 205.45 31.17C205.67 31.18 205.88 31.21 206.2 31.23Z" fill="#48313D"/>
<path d="M193.4 34.51C193.4 36.45 193.39 38.39 193.41 40.32C193.42 40.82 193.25 41.01 192.74 40.99C192.05 40.95 191.35 40.98 190.66 40.98C189.85 40.98 189.84 40.98 189.84 40.18C189.84 36.61 189.84 33.04 189.84 29.47C189.84 29.1 189.83 28.74 189.84 28.37C189.85 27.95 189.66 27.78 189.25 27.79C188.41 27.8 187.58 27.78 186.74 27.8C186.34 27.81 186.2 27.66 186.21 27.26C186.23 26.55 186.23 25.83 186.21 25.12C186.2 24.73 186.33 24.57 186.73 24.58C189.97 24.59 193.22 24.59 196.46 24.58C196.85 24.58 197.02 24.71 197.01 25.11C196.99 25.82 196.99 26.54 197.01 27.25C197.03 27.69 196.83 27.81 196.42 27.8C195.67 27.78 194.91 27.83 194.16 27.78C193.55 27.75 193.39 28 193.39 28.57C193.42 30.55 193.4 32.53 193.4 34.51Z" fill="#48313D"/>
<path d="M140.42 32.8C140.42 30.29 140.43 27.78 140.41 25.28C140.41 24.76 140.54 24.55 141.1 24.58C141.87 24.62 142.65 24.6 143.42 24.59C143.84 24.58 143.99 24.75 143.99 25.17C143.98 30.25 143.98 35.32 143.99 40.4C143.99 40.85 143.83 41.01 143.38 41C142.59 40.98 141.79 40.97 140.99 41C140.52 41.02 140.4 40.84 140.4 40.39C140.42 37.86 140.42 35.33 140.42 32.8Z" fill="#48313D"/>
<path d="M195.07 53.7C195.07 51.37 195.07 49.05 195.07 46.72C195.07 44.81 196.14 43.74 198.04 43.73C200.38 43.73 202.73 43.73 205.07 43.73C206.98 43.73 208.04 44.79 208.05 46.71C208.05 51.38 208.03 56.05 208.06 60.72C208.07 62.64 206.76 63.75 205.08 63.71C202.7 63.65 200.33 63.7 197.95 63.69C196.16 63.69 195.08 62.61 195.07 60.83C195.07 58.46 195.07 56.08 195.07 53.7ZM203.68 53.73C203.68 51.92 203.67 50.1 203.69 48.29C203.69 47.88 203.57 47.69 203.12 47.69C202.08 47.71 201.04 47.71 200 47.69C199.61 47.68 199.43 47.82 199.43 48.23C199.44 51.89 199.44 55.55 199.43 59.21C199.43 59.63 199.61 59.75 200 59.74C201.02 59.72 202.05 59.71 203.07 59.74C203.55 59.75 203.7 59.57 203.69 59.11C203.67 57.32 203.68 55.53 203.68 53.73Z" fill="#48313D"/>
<path d="M149.5 53.75C149.5 55.55 149.51 57.35 149.49 59.15C149.49 59.61 149.65 59.76 150.1 59.75C150.94 59.72 151.78 59.73 152.63 59.75C153.02 59.76 153.16 59.6 153.15 59.22C153.14 58.36 153.16 57.5 153.14 56.64C153.13 56.26 153.28 56.08 153.66 56C154.76 55.77 155.85 55.51 156.94 55.26C157.44 55.14 157.52 55.2 157.52 55.72C157.52 57.44 157.53 59.15 157.52 60.87C157.5 62.63 156.42 63.69 154.66 63.69C152.43 63.69 150.2 63.7 147.97 63.69C146.25 63.69 145.15 62.6 145.15 60.87C145.14 56.1 145.14 51.33 145.15 46.55C145.15 44.84 146.27 43.74 147.98 43.73C150.23 43.72 152.47 43.72 154.72 43.73C156.41 43.74 157.5 44.83 157.52 46.53C157.54 47.62 157.52 48.71 157.53 49.8C157.53 50.18 157.4 50.35 157.01 50.43C155.96 50.64 154.92 50.9 153.88 51.15C153.23 51.31 153.15 51.26 153.15 50.6C153.15 49.82 153.14 49.05 153.15 48.27C153.16 47.85 153.01 47.67 152.57 47.68C151.74 47.7 150.92 47.7 150.09 47.68C149.63 47.67 149.48 47.85 149.49 48.3C149.51 50.12 149.5 51.94 149.5 53.75Z" fill="#48313D"/>
<path d="M167.33 53.69C167.33 50.59 167.34 47.48 167.32 44.38C167.32 43.89 167.45 43.72 167.96 43.72C171.26 43.74 174.56 43.73 177.86 43.73C178.48 43.73 178.5 43.76 178.5 44.37C178.5 45.28 178.48 46.19 178.51 47.09C178.52 47.54 178.37 47.7 177.91 47.69C176.08 47.67 174.25 47.68 172.41 47.68C171.71 47.68 171.68 47.71 171.68 48.4C171.68 49.31 171.7 50.22 171.67 51.12C171.66 51.58 171.85 51.73 172.29 51.72C173.45 51.7 174.6 51.72 175.76 51.71C176.12 51.71 176.23 51.85 176.14 52.2C175.89 53.21 175.64 54.22 175.43 55.23C175.36 55.58 175.2 55.7 174.87 55.69C174.01 55.68 173.15 55.7 172.29 55.68C171.86 55.67 171.66 55.8 171.68 56.27C171.71 57.23 171.7 58.18 171.68 59.14C171.67 59.57 171.82 59.72 172.26 59.72C174.13 59.7 175.99 59.73 177.86 59.7C178.34 59.69 178.54 59.81 178.52 60.33C178.48 61.27 178.5 62.21 178.51 63.15C178.52 63.54 178.38 63.67 177.99 63.66C174.61 63.65 171.22 63.65 167.84 63.66C167.41 63.66 167.32 63.5 167.32 63.11C167.34 60 167.33 56.84 167.33 53.69Z" fill="#48313D"/>
<path d="M181.19 44.38C181.19 43.89 181.32 43.71 181.83 43.72C182.87 43.75 183.91 43.75 184.95 43.72C185.43 43.71 185.57 43.87 185.57 44.34C185.56 49.11 185.56 53.88 185.56 58.65C185.56 58.82 185.57 58.98 185.56 59.14C185.51 59.59 185.69 59.75 186.15 59.74C188.01 59.72 189.88 59.75 191.74 59.72C192.25 59.71 192.4 59.87 192.38 60.37C192.35 61.31 192.36 62.25 192.37 63.19C192.38 63.55 192.26 63.69 191.89 63.69C188.47 63.68 185.06 63.68 181.64 63.69C181.19 63.69 181.18 63.46 181.18 63.13C181.18 61.72 181.19 58.43 181.19 54.95C181.19 54.54 181.19 54.13 181.19 53.72C181.2 49.82 181.2 45.93 181.19 44.38Z" fill="#48313D"/>
<path d="M164.56 53.75C164.56 56.85 164.55 59.96 164.57 63.06C164.57 63.56 164.44 63.72 163.93 63.7C162.86 63.66 161.78 63.68 160.71 63.69C160.34 63.7 160.18 63.61 160.18 63.19C160.19 56.88 160.19 50.58 160.18 44.27C160.18 43.82 160.35 43.7 160.76 43.71C161.82 43.73 162.87 43.74 163.93 43.71C164.41 43.7 164.56 43.85 164.56 44.33C164.55 47.48 164.56 50.62 164.56 53.75Z" fill="#48313D"/>
<path d="M98.97 53.71C98.97 50.83 98.98 47.94 98.96 45.06C98.95 44.44 99.1 44.19 99.78 44.2C102.64 44.24 105.5 44.21 108.36 44.22C110.13 44.23 111.13 45.22 111.13 46.99C111.14 51.48 111.14 55.97 111.13 60.47C111.13 62.21 110.08 63.23 108.33 63.23C105.47 63.24 102.61 63.21 99.75 63.25C99.12 63.26 98.94 63.07 98.95 62.45C98.98 59.53 98.97 56.62 98.97 53.71ZM106.95 53.72C106.95 52.07 106.93 50.41 106.96 48.76C106.97 48.17 106.83 47.89 106.17 47.93C105.39 47.98 104.61 47.96 103.83 47.93C103.32 47.91 103.1 48.1 103.1 48.62C103.11 52 103.11 55.38 103.1 58.76C103.1 59.28 103.34 59.47 103.84 59.46C104.62 59.44 105.4 59.43 106.18 59.46C106.77 59.49 106.97 59.26 106.96 58.68C106.93 57.03 106.95 55.38 106.95 53.72Z" fill="#48313D"/>
<path d="M122.15 51.93C121.88 53.12 121.65 54.22 121.36 55.31C121.32 55.44 120.99 55.56 120.79 55.57C120.08 55.6 119.37 55.61 118.66 55.58C118.09 55.55 117.83 55.74 117.86 56.34C117.89 57.12 117.89 57.9 117.86 58.68C117.84 59.26 118.07 59.48 118.66 59.47C120.29 59.45 121.92 59.48 123.56 59.45C124.13 59.44 124.38 59.63 124.36 60.22C124.33 61.02 124.34 61.83 124.35 62.63C124.36 63.05 124.2 63.22 123.77 63.22C120.62 63.21 117.48 63.2 114.33 63.23C113.7 63.23 113.74 62.87 113.74 62.45C113.74 58.59 113.74 54.74 113.74 50.88C113.74 48.92 113.75 46.95 113.73 44.99C113.72 44.44 113.85 44.19 114.47 44.19C117.52 44.22 120.57 44.21 123.62 44.19C124.18 44.19 124.38 44.39 124.35 44.93C124.32 45.69 124.32 46.44 124.35 47.2C124.37 47.77 124.14 47.94 123.6 47.93C121.97 47.9 120.34 47.94 118.7 47.91C118.09 47.9 117.83 48.09 117.86 48.72C117.89 49.52 117.88 50.33 117.87 51.13C117.86 51.64 118.08 51.85 118.6 51.84C119.5 51.82 120.4 51.83 121.3 51.84C121.54 51.86 121.79 51.9 122.15 51.93Z" fill="#48313D"/>
<path d="M127.07 53.66C127.07 50.78 127.09 47.89 127.06 45.01C127.05 44.39 127.23 44.16 127.86 44.2C128.71 44.25 129.56 44.24 130.41 44.2C131.04 44.17 131.22 44.41 131.22 45.02C131.2 49.44 131.21 53.86 131.21 58.28C131.21 59.45 131.21 59.45 132.39 59.46C133.88 59.48 135.37 59.52 136.86 59.52C137.4 59.52 137.64 59.68 137.61 60.25C137.58 60.98 137.58 61.72 137.61 62.45C137.63 62.99 137.45 63.2 136.88 63.2C133.83 63.19 130.78 63.2 127.73 63.23C127.18 63.24 127.05 63.03 127.06 62.52C127.08 59.57 127.07 56.62 127.07 53.66Z" fill="#48313D"/>
<path d="M98.95 73.11H101.86C104.34 73.11 105.46 74.12 105.46 77.32C105.46 80.02 104.99 81.75 101.86 81.75H98.95V80.76H99.85V74.1H98.95V73.11ZM100.98 80.75H102.17C103.64 80.75 104.3 79.92 104.3 77.44C104.3 74.79 103.53 74.11 102.14 74.11H100.98V80.75Z" fill="#48313D"/>
<path d="M109.62 73.11H115.06V74.1H110.74V76.69H114.31V77.68H110.74V80.75H115.06V81.74H109.62V73.11Z" fill="#48313D"/>
<path d="M123.08 79.01C123.3 80.07 123.82 80.85 124.99 80.85C125.91 80.85 126.63 80.35 126.63 79.39C126.63 78.33 125.73 78.06 124.87 77.72C123.6 77.19 122.39 76.86 122.39 75.23C122.39 73.77 123.58 72.96 124.95 72.96C126.41 72.96 127.26 73.79 127.61 75.13L126.54 75.44C126.34 74.59 125.89 74 124.93 74C124.21 74 123.51 74.36 123.51 75.14C123.51 75.95 124.01 76.18 124.68 76.48L126.54 77.29C127.33 77.72 127.75 78.42 127.75 79.31C127.75 80.95 126.59 81.88 124.99 81.88C123.37 81.88 122.34 80.85 122.08 79.31L123.08 79.01Z" fill="#48313D"/>
<path d="M132.76 73.11H133.88V80.75H138.45V81.74H132.76V73.11Z" fill="#48313D"/>
<path d="M143.42 79.39L142.6 81.96L141.49 81.56L144.24 73.11H145.68L148.43 81.56L147.32 81.96L146.52 79.39H143.42ZM144.96 74.4L143.72 78.39H146.2L144.96 74.4Z" fill="#48313D"/>
<path d="M158.12 80.09C157.42 81.18 156.58 81.9 155.22 81.9C152.67 81.9 151.87 79.58 151.87 77.44C151.87 73.99 153.71 72.96 155.12 72.96C156.48 72.96 157.26 73.66 157.88 74.8L156.86 75.31C156.49 74.61 155.99 74 155.14 74C153.4 74 153.05 76.09 153.05 77.41C153.05 78.75 153.37 80.84 155.14 80.84C156.16 80.84 156.68 80.23 157.2 79.45L158.12 80.09Z" fill="#48313D"/>
<path d="M163.83 76.79H164.25L167.25 72.9L168.1 73.56L165.2 77.19L168.6 81.25L167.75 81.96L164.22 77.7H163.83V81.74H162.71V73.1H163.83V76.79Z" fill="#48313D"/>
<path d="M172.87 73.11H173.99V80.75H178.56V81.74H172.87V73.11Z" fill="#48313D"/>
<path d="M183.28 80.75H184.5V74.1H183.28V73.11H186.86V74.1H185.62V80.75H186.86V81.74H183.28V80.75Z" fill="#48313D"/>
<path d="M192.19 73.11H193.58L196.96 80.39L196.99 80.36L196.89 78.12V73.11H198.01V81.75H196.62L193.24 74.47L193.21 74.5L193.31 76.75V81.74H192.19V73.11Z" fill="#48313D"/>
<path d="M202.74 73.11H208.18V74.1H203.86V76.69H207.43V77.68H203.86V80.75H208.18V81.74H202.74V73.11Z" fill="#48313D"/>
<mask id="mask0_1_524" style="mask-type:luminance" maskUnits="userSpaceOnUse" x="0" y="3" width="94" height="101">
<path d="M36.42 6.01L11.48 20.41C4.87002 24.22 0.800018 31.27 0.800018 38.91V67.71C0.800018 75.34 4.87002 82.39 11.48 86.21L36.42 100.61C43.03 104.43 51.17 104.43 57.78 100.61L82.72 86.21C89.33 82.39 93.4 75.34 93.4 67.71V38.91C93.4 31.28 89.33 24.23 82.72 20.41L57.79 6.01C51.18 2.19 43.03 2.19 36.42 6.01Z" fill="white"/>
</mask>
<g mask="url(#mask0_1_524)">
<path d="M46.94 106.8L46.17 105.46L46.39 105.33L47.16 106.67L46.94 106.8ZM72.63 62.7L72.41 62.57L73.18 61.23L73.4 61.36L72.63 62.7ZM74.17 60.03L73.95 59.9L74.72 58.56L74.94 58.69L74.17 60.03ZM19.15 58.68L18.38 57.34L18.6 57.21L19.37 58.55L19.15 58.68ZM75.71 57.35L75.49 57.22L76.26 55.88L76.48 56.01L75.71 57.35ZM17.61 56L16.84 54.66L17.06 54.53L17.83 55.87L17.61 56ZM77.26 54.68L77.04 54.55L77.81 53.21L78.03 53.34L77.26 54.68ZM16.07 53.33L15.3 51.99L15.52 51.86L16.29 53.2L16.07 53.33ZM78.8 52.01L78.58 51.88L79.35 50.54L79.57 50.67L78.8 52.01ZM14.52 50.66L13.75 49.32L13.97 49.19L14.74 50.53L14.52 50.66ZM80.34 49.33L80.12 49.2L80.89 47.86L81.12 48L80.34 49.33ZM12.98 47.98L12.21 46.64L12.43 46.51L13.2 47.85L12.98 47.98ZM81.89 46.66L81.67 46.53L82.44 45.19L82.66 45.32L81.89 46.66ZM11.44 45.31L10.67 43.97L10.89 43.84L11.66 45.18L11.44 45.31ZM83.43 43.99L83.21 43.86L83.98 42.52L84.2 42.65L83.43 43.99ZM9.89003 42.64L9.12003 41.3L9.34003 41.17L10.11 42.51L9.89003 42.64ZM84.98 41.31L84.76 41.18L85.53 39.84L85.75 39.97L84.98 41.31ZM8.35003 39.96L7.58003 38.62L7.80003 38.5L8.57003 39.84L8.35003 39.96ZM86.52 38.64L86.3 38.51L87.07 37.17L87.29 37.3L86.52 38.64ZM6.81003 37.29L6.04003 35.95L6.26003 35.82L7.03003 37.16L6.81003 37.29ZM88.06 35.97L87.84 35.84L88.61 34.5L88.83 34.63L88.06 35.97ZM5.26003 34.62L4.49003 33.28L4.71003 33.15L5.48003 34.49L5.26003 34.62ZM89.61 33.29L89.39 33.16L90.16 31.82L90.38 31.95L89.61 33.29ZM3.72003 31.94L2.95003 30.6L3.17003 30.47L3.94003 31.81L3.72003 31.94ZM91.15 30.62L90.93 30.49L91.7 29.15L91.92 29.28L91.15 30.62ZM2.18003 29.27L1.40003 27.93L1.62003 27.8L2.39003 29.14L2.18003 29.27ZM92.69 27.95L92.47 27.82L93.24 26.48L93.46 26.61L92.69 27.95ZM91.81 26.67H90.27V26.41H91.81V26.67ZM88.73 26.67H87.19V26.41H88.73V26.67ZM85.64 26.67H84.1V26.41H85.64V26.67ZM82.55 26.67H81.01V26.41H82.55V26.67ZM79.47 26.67H77.93V26.41H79.47V26.67ZM76.38 26.67H74.84V26.41H76.38V26.67ZM73.29 26.67H71.75V26.41H73.29V26.67ZM70.21 26.67H68.67V26.41H70.21V26.67ZM67.12 26.67H65.58V26.41H67.12V26.67ZM64.03 26.67H62.49V26.41H64.03V26.67ZM60.94 26.67H59.4V26.41H60.94V26.67ZM57.86 26.67H56.32V26.41H57.86V26.67ZM54.77 26.67H53.23V26.41H54.77V26.67ZM51.68 26.67H50.14V26.41H51.68V26.67ZM48.6 26.67H47.06V26.41H48.6V26.67ZM45.51 26.67H43.97V26.41H45.51V26.67ZM42.42 26.67H40.88V26.41H42.42V26.67ZM39.34 26.67H37.8V26.41H39.34V26.67ZM36.25 26.67H34.71V26.41H36.25V26.67ZM33.16 26.67H31.62V26.41H33.16V26.67ZM30.07 26.67H28.53V26.41H30.07V26.67ZM26.99 26.67H25.45V26.41H26.99V26.67ZM23.9 26.67H22.36V26.41H23.9V26.67ZM20.81 26.67H19.27V26.41H20.81V26.67ZM17.73 26.67H16.19V26.41H17.73V26.67ZM14.64 26.67H13.1V26.41H14.64V26.67ZM11.55 26.67H10.01V26.41H11.55V26.67ZM8.47003 26.67H6.92003V26.41H8.46003V26.67H8.47003ZM5.38003 26.67H3.84003V26.41H5.38003V26.67ZM2.29003 26.67H0.750031V26.41H2.29003V26.67Z" fill="#44243B"/>
<path d="M53.27 18.98L93.1 26.43L93.06 26.65L53.52 19.26" fill="#44243B"/>
<path d="M39.46 19.37L0.500022 26.65L0.460022 26.43L39.12 19.2" fill="#44243B"/>
<path d="M40.16 14.46L30.5 9.27999L30.61 9.06999L39.75 13.98" fill="#44243B"/>
<path d="M54.91 14.09L64.3 9.84L64.39 10.05L54.31 14.61" fill="#44243B"/>
<path d="M38.61 17.1L20.47 15.11L20.49 14.88L39.34 16.95" fill="#44243B"/>
<path d="M55.6 17.16L75.01 15.81V16.04L55.9 17.37" fill="#44243B"/>
<path d="M43.14 11.1C41.25 7.53999 39.51 4.44999 39.15 4.32999C39.15 4.32999 39.17 4.32999 39.19 4.31999L39.08 4.11999C39.11 4.09999 39.16 4.08999 39.22 4.10999C39.37 4.14999 39.76 4.26999 42.9 10.14C43.06 10.44 43.23 10.76 43.41 11.1" fill="#44243B"/>
<path d="M50.26 11.42L54.31 4.15999L54.51 4.26999L50.14 12.11" fill="#44243B"/>
<path d="M91.4 77.28L90.71 76.09L90.91 75.98L91.6 77.17L91.4 77.28ZM90.03 74.89L89.34 73.7L89.54 73.59L90.23 74.78L90.03 74.89ZM88.65 72.51L87.96 71.32L88.16 71.21L88.85 72.4L88.65 72.51ZM87.27 70.12L86.58 68.93L86.78 68.82L87.47 70.01L87.27 70.12ZM85.89 67.74L85.2 66.55L85.4 66.44L86.09 67.63L85.89 67.74ZM84.52 65.35L83.83 64.16L84.03 64.05L84.72 65.24L84.52 65.35ZM83.14 62.96L82.45 61.77L82.65 61.66L83.34 62.85L83.14 62.96ZM11.02 62.87L10.82 62.76L11.51 61.57L11.71 61.68L11.02 62.87ZM81.76 60.58L81.07 59.39L81.27 59.28L81.96 60.47L81.76 60.58ZM12.4 60.48L12.2 60.37L12.89 59.18L13.09 59.29L12.4 60.48ZM80.38 58.19L79.7 57L79.9 56.89L80.59 58.08L80.38 58.19ZM13.78 58.09L13.58 57.98L14.27 56.79L14.47 56.9L13.78 58.09ZM79.01 55.81L78.32 54.62L78.52 54.51L79.21 55.7L79.01 55.81ZM15.15 55.71L14.95 55.6L15.64 54.41L15.84 54.52L15.15 55.71ZM77.63 53.42L76.94 52.23L77.14 52.12L77.83 53.31L77.63 53.42ZM16.53 53.32L16.33 53.21L17.02 52.02L17.22 52.13L16.53 53.32ZM76.25 51.03L75.56 49.84L75.76 49.73L76.45 50.92L76.25 51.03ZM17.91 50.94L17.71 50.83L18.4 49.64L18.6 49.75L17.91 50.94ZM74.87 48.65L74.18 47.46L74.38 47.35L75.07 48.54L74.87 48.65ZM19.29 48.55L19.09 48.44L19.78 47.25L19.98 47.36L19.29 48.55ZM73.5 46.26L72.81 45.07L73.01 44.96L73.7 46.15L73.5 46.26ZM20.66 46.17L20.46 46.06L21.15 44.87L21.35 44.98L20.66 46.17ZM72.12 43.88L71.43 42.69L71.63 42.58L72.32 43.77L72.12 43.88ZM22.04 43.78L21.84 43.67L22.53 42.48L22.73 42.59L22.04 43.78ZM70.74 41.49L70.05 40.3L70.25 40.19L70.94 41.38L70.74 41.49ZM23.42 41.39L23.22 41.28L23.91 40.09L24.11 40.2L23.42 41.39ZM69.36 39.11L68.67 37.92L68.87 37.81L69.56 39L69.36 39.11ZM24.8 39.01L24.6 38.9L25.29 37.71L25.49 37.82L24.8 39.01ZM67.99 36.72L67.3 35.53L67.5 35.42L68.19 36.61L67.99 36.72ZM26.17 36.62L25.97 36.51L26.66 35.32L26.86 35.43L26.17 36.62ZM66.61 34.33L65.92 33.14L66.12 33.03L66.81 34.22L66.61 34.33ZM27.55 34.24L27.35 34.13L28.04 32.94L28.24 33.05L27.55 34.24ZM65.23 31.95L64.54 30.76L64.74 30.65L65.43 31.84L65.23 31.95ZM28.93 31.85L28.73 31.74L29.42 30.55L29.62 30.66L28.93 31.85ZM63.85 29.56L63.16 28.37L63.36 28.26L64.05 29.45L63.85 29.56ZM30.31 29.46L30.11 29.35L30.8 28.16L31 28.27L30.31 29.46ZM62.48 27.18L61.79 25.99L61.99 25.88L62.68 27.07L62.48 27.18ZM31.68 27.08L31.48 26.97L32.17 25.78L32.37 25.89L31.68 27.08ZM61.1 24.79L60.41 23.6L60.61 23.49L61.3 24.68L61.1 24.79ZM33.06 24.69L32.86 24.58L33.55 23.39L33.75 23.5L33.06 24.69ZM59.72 22.4L59.03 21.21L59.23 21.1L59.92 22.29L59.72 22.4ZM34.44 22.31L34.24 22.2L34.93 21L35.13 21.11L34.44 22.31ZM58.34 20.02L57.65 18.83L57.85 18.72L58.54 19.91L58.34 20.02ZM35.82 19.92L35.62 19.81L36.31 18.62L36.51 18.73L35.82 19.92ZM56.97 17.63L56.28 16.44L56.48 16.33L57.17 17.52L56.97 17.63ZM37.19 17.54L36.99 17.43L37.68 16.24L37.88 16.35L37.19 17.54ZM55.59 15.25L54.9 14.06L55.1 13.95L55.79 15.14L55.59 15.25ZM38.57 15.15L38.37 15.04L39.06 13.85L39.26 13.96L38.57 15.15ZM54.21 12.86L53.52 11.67L53.72 11.56L54.41 12.75L54.21 12.86ZM39.95 12.76L39.75 12.65L40.44 11.46L40.64 11.57L39.95 12.76ZM52.83 10.48L52.14 9.29L52.34 9.18L53.03 10.37L52.83 10.48ZM41.32 10.38L41.12 10.27L41.81 9.08L42.01 9.19L41.32 10.38ZM51.46 8.09L50.77 6.9L50.97 6.79L51.66 7.98L51.46 8.09ZM42.7 7.99L42.5 7.88L43.19 6.69L43.39 6.8L42.7 7.99ZM50.08 5.7L49.39 4.51L49.59 4.4L50.28 5.59L50.08 5.7ZM44.08 5.61L43.88 5.5L44.57 4.31L44.77 4.42L44.08 5.61ZM48.7 3.32L48.01 2.13L48.21 2.02L48.9 3.2L48.7 3.32ZM45.46 3.22L45.26 3.11L45.95 1.92L46.15 2.03L45.46 3.22ZM47.32 0.93L47.05 0.46L46.83 0.84L46.63 0.73L47.05 0L47.52 0.82L47.32 0.93Z" fill="#44243B"/>
<path d="M-1.59997 80.46L-1.71997 80.31L8.17003 72.71C8.21003 72.68 11.82 70.13 12.04 68.84C12.17 68.08 12.48 67.04 12.73 66.2C12.9 65.61 13.07 65.06 13.07 64.92C13.07 64.7 14.68 61.94 17.86 56.73L18.02 56.83C15.08 61.65 13.31 64.68 13.26 64.93C13.26 65.08 13.13 65.51 12.91 66.26C12.66 67.09 12.35 68.13 12.23 68.88C11.99 70.25 8.44003 72.76 8.29003 72.87L-1.59997 80.46Z" fill="#44243B"/>
<path d="M9.44003 79.06L9.37003 78.88L9.40003 78.86C12.4 77.28 17.47 74.63 17.71 74.63C17.87 74.58 18.61 73.49 19.22 72.47L23.12 63.27L24.13 62.04L24.18 62.14L26.24 59.85L26.39 59.97L24.07 63.55L21.6 75.43L21.54 75.45L9.44003 79.06ZM23.28 63.38L19.4 72.56C18.89 73.41 18 74.83 17.72 74.83C17.47 74.88 13.76 76.8 10.34 78.6L21.43 75.28L23.9 63.48L25.57 60.9L24.15 62.48L24.1 62.39L23.28 63.38Z" fill="#44243B"/>
<path d="M39.19 45.73C38.96 45.73 38.58 45.5 38.05 45.05L37.99 45L39.89 41.97L40.93 38.62L42.59 38.12L44.13 37.01L44.03 37.3C43.42 39.04 43.29 39.81 43.35 39.94C43.48 40.19 43.13 40.83 42.41 42.01C42.25 42.28 42.09 42.53 42.07 42.6C41.97 42.9 39.61 45.5 39.32 45.69C39.29 45.72 39.25 45.73 39.19 45.73ZM38.25 44.96C38.78 45.41 39.15 45.59 39.23 45.54C39.53 45.34 41.82 42.77 41.9 42.55C41.93 42.46 42.04 42.28 42.26 41.93C42.57 41.43 43.29 40.25 43.19 40.05C43.08 39.83 43.27 38.98 43.76 37.54L42.67 38.32L41.1 38.79L40.08 42.08L38.25 44.96Z" fill="#44243B"/>
<path d="M58.97 49.99C58.86 49.99 58.68 49.71 57.03 43.43V43.41V38.8L58.48 39.74L60.61 41.03L58.16 43.44C58.26 44.04 59.08 49.26 59.08 49.86C59.08 49.97 59.01 49.99 58.99 49.99H58.97ZM57.22 43.39C57.72 45.31 58.45 47.99 58.82 49.2C58.61 47.52 57.97 43.47 57.96 43.42L57.95 43.37L60.29 41.07L58.37 39.9L57.22 39.15V43.39Z" fill="#44243B"/>
<path d="M74.65 73.39C74.56 73.39 74.33 73.12 72.87 71.39L72.85 71.36C72.04 68.68 70.78 64.61 70.65 64.41C70.51 64.2 68.83 62.56 68.19 61.95L68.17 61.93L67.81 58.9L66.31 54.99V53.28L67.88 52.05L67.48 54.97C68.08 56.15 69.95 59.85 69.95 60.11C69.97 60.32 71.15 62.36 71.88 63.6L71.89 63.63L73.13 68.84C73.69 70.5 74.58 73.04 74.71 73.23C74.77 73.32 74.72 73.37 74.7 73.38C74.68 73.38 74.67 73.39 74.65 73.39ZM73.03 71.28C73.43 71.76 73.97 72.39 74.32 72.8C73.9 71.69 73.06 69.22 72.94 68.88L71.7 63.67C71.23 62.88 69.75 60.37 69.75 60.1C69.72 59.87 68.26 56.93 67.29 55.02L67.28 55L67.62 52.49L66.5 53.37V54.96L68 58.86L68.35 61.83C68.61 62.08 70.64 64.04 70.81 64.3C70.99 64.56 72.8 70.51 73.03 71.28Z" fill="#44243B"/>
<path d="M80.38 81.44L80.11 80.64C80.1 80.62 79.27 78.15 79.19 77.97C79.11 77.77 79.33 76.59 79.41 76.21L79.2 74.59L79.29 74.53C81.03 73.4 81.13 73.4 81.18 73.4C81.26 73.35 81.7 72.77 82.08 72.24L83.13 70.31H83.18C83.19 70.31 84.16 70.24 84.85 70.21L85.33 70.19L84.9 70.4C84.38 70.65 84.22 70.79 84.21 70.84C84.21 71.07 83.67 71.78 83.48 72.02C83.43 72.27 83.16 73.68 83.01 73.91C82.84 74.17 81.03 74.68 80.69 74.75C80.64 74.9 80.6 75.53 80.58 76.08C80.39 76.82 80.08 78.01 80.08 78.14C80.08 78.29 80.23 79.82 80.31 80.62L80.38 81.44ZM79.41 74.67L79.61 76.2V76.22C79.46 76.95 79.34 77.77 79.38 77.89C79.43 78.01 79.78 79.03 80.03 79.78C79.96 79.1 79.88 78.24 79.88 78.12C79.88 77.92 80.33 76.22 80.38 76.03C80.42 74.54 80.53 74.54 80.63 74.54C80.8 74.52 82.71 73.97 82.84 73.78C82.94 73.62 83.17 72.57 83.29 71.94L83.31 71.9C83.65 71.47 84.01 70.93 84.01 70.81C84.01 70.76 84.01 70.65 84.42 70.41C83.92 70.44 83.41 70.47 83.25 70.48L82.24 72.33C81.36 73.58 81.23 73.58 81.18 73.58C81.15 73.59 80.91 73.7 79.41 74.67Z" fill="#44243B"/>
<path d="M26.64 59.68L28.76 54.59L33.75 46.68L37.07 44.57L26.64 59.68ZM33.87 46.83L28.93 54.68L27.52 58.06L36.36 45.24L33.87 46.83Z" fill="#44243B"/>
<path d="M37.86 54.8C37.63 54.8 37.25 54.57 36.72 54.12C36.67 54.08 36.64 54.05 36.64 54.05L36.58 54L38.56 50.84C38.56 50.84 38.81 50.12 39.08 49.37C39.3 48.74 39.57 47.95 39.61 47.78C39.62 47.75 39.63 47.72 39.65 47.7C39.83 47.36 40.97 47.07 41.25 47C41.38 46.9 42.17 46.28 42.6 46.2L42.75 46.17L42.71 46.32C42.71 46.32 42.7 46.34 42.69 46.38C42.08 48.12 41.95 48.89 42.01 49.02C42.14 49.27 41.79 49.91 41.07 51.09C40.91 51.36 40.75 51.61 40.73 51.68C40.63 51.98 38.27 54.58 37.98 54.77C37.97 54.79 37.92 54.8 37.86 54.8ZM36.84 53.96C36.85 53.96 36.85 53.97 36.86 53.97C37.42 54.46 37.82 54.66 37.9 54.6C38.2 54.4 40.49 51.83 40.57 51.61C40.6 51.52 40.71 51.34 40.93 50.99C41.24 50.49 41.96 49.31 41.86 49.11C41.74 48.88 41.95 47.98 42.48 46.45C42.04 46.64 41.38 47.16 41.37 47.17L41.33 47.19C40.81 47.31 39.94 47.59 39.82 47.81C39.77 48.01 39.5 48.77 39.27 49.44C39 50.2 38.75 50.93 38.75 50.93L36.84 53.96Z" fill="#44243B"/>
<path d="M40.64 51.96L40.94 51.5C40.96 51.47 41.03 51.32 41.3 50.63C42.09 48.59 43.88 43.68 43.9 43.63L46.61 37.62L47.5 35.55H48.53L48.45 35.87L47.6 39.19L45.98 44.37C45.98 44.39 45.39 47.22 44.05 49.19C43.6 49.85 42.95 50.46 42.12 51.02C41.74 51.28 41.4 51.46 41.23 51.56C41.16 51.6 41.11 51.63 41.09 51.64L40.64 51.96ZM47.62 35.74L46.71 37.86L44.08 43.7C44.06 43.74 42.27 48.65 41.48 50.69C41.37 50.98 41.29 51.18 41.23 51.31C41.42 51.21 41.69 51.05 42 50.84C42.81 50.3 43.44 49.7 43.88 49.07C45.2 47.13 45.78 44.34 45.78 44.31L47.4 39.13L48.27 35.74H47.62Z" fill="#44243B"/>
<path d="M-1.87997 80.68L-1.99997 80.52L0.82003 78.35L7.27003 69.64L10.31 64.35C10.44 64.2 13.19 60.93 13.9 60.52C14.43 60.21 16.83 57.66 18.16 56.2L18.31 56.32C18.29 56.34 18.24 56.43 18.16 56.56L18.01 56.81C15.07 61.63 13.3 64.66 13.25 64.91C13.25 65.06 13.12 65.49 12.9 66.24C12.65 67.07 12.34 68.11 12.22 68.86C11.98 70.23 8.43003 72.74 8.28003 72.85L-1.87997 80.68ZM17.65 57.07C16.56 58.25 14.53 60.4 14.01 60.7C13.33 61.09 10.51 64.44 10.48 64.47L7.44003 69.76L1.39003 77.94L8.18003 72.72C8.22003 72.69 11.83 70.14 12.05 68.85C12.18 68.09 12.49 67.05 12.74 66.21C12.91 65.62 13.08 65.07 13.08 64.93C13.07 64.7 14.61 62.06 17.65 57.07Z" fill="#44243B"/>
<path d="M89.86 81.17C89.7 80.83 89.22 80.56 88.86 80.36C88.65 80.24 88.5 80.15 88.43 80.07C88.31 79.91 88.41 79.51 88.58 78.92C88.64 78.71 88.72 78.44 88.71 78.38C88.65 78.22 88.19 76.58 88.19 76.56C88.15 76.43 88.13 76.35 88.13 76.35L88.1 76.22L89.53 76.31L89.54 76.39C89.54 76.39 89.55 76.46 89.56 76.57C89.59 76.97 89.66 77.49 89.77 77.73C89.94 78.14 90.01 78.8 89.95 79.06C89.9 79.25 89.89 80.47 90.06 81.11L89.86 81.17ZM88.36 76.43C88.37 76.45 88.37 76.48 88.38 76.5C88.57 77.17 88.86 78.2 88.9 78.32C88.93 78.41 88.89 78.57 88.77 78.97C88.69 79.26 88.52 79.86 88.59 79.96C88.63 80.01 88.8 80.11 88.96 80.2C89.22 80.35 89.54 80.53 89.78 80.76C89.69 80.09 89.7 79.23 89.75 79.03C89.8 78.83 89.75 78.22 89.58 77.83C89.44 77.5 89.37 76.81 89.36 76.61C89.36 76.57 89.35 76.54 89.35 76.51L88.36 76.43Z" fill="#44243B"/>
<path d="M88.58 80.03C88.41 79.8 88.93 78.54 88.87 78.37C88.82 78.23 88.49 77.04 88.35 76.55C88.31 76.54 88.29 76.54 88.29 76.54L87.61 74.09C87.61 74.09 85.73 70.35 85.59 70.31C85.55 70.29 85.26 70.3 84.91 70.32C84.55 70.49 84.16 70.71 84.16 70.84C84.16 71.07 83.43 71.99 83.43 71.99C83.43 71.99 83.12 73.64 82.97 73.87C82.82 74.1 80.79 74.67 80.68 74.67C80.56 74.67 80.53 76.09 80.53 76.09C80.53 76.09 80.03 77.97 80.03 78.16C80.03 78.35 80.26 80.65 80.26 80.65C80.26 80.65 79.42 78.16 79.34 77.97C79.26 77.78 79.57 76.25 79.57 76.25L79.36 74.67C79.34 74.68 79.34 74.69 79.34 74.69L77.73 73.54L76.81 71.57L75.43 69.98L75.2 67.9L73.61 64.5C73.61 64.5 72.59 61.54 72.5 61.41C72.41 61.28 71.88 60.62 71.88 60.62L71.26 58.37L69.36 53.11L67.91 52.05L67.62 52.24L67.43 55C67.43 55 69.9 59.86 69.9 60.13C69.9 60.39 71.84 63.66 71.84 63.66L73.08 68.87C73.08 68.87 74.49 73.02 74.67 73.29C74.85 73.56 72.99 71.35 72.99 71.35C72.99 71.35 70.96 64.64 70.78 64.37C70.6 64.11 68.31 61.9 68.31 61.9L67.95 58.9L66.46 55V53.34L65.14 50.56L63.9 47.78L63.5 45.86L62.84 42.83L60.83 40.96L60.51 41.07L58.11 43.42C58.11 43.42 59.04 49.25 59.04 49.87C59.04 50.49 57.18 43.42 57.18 43.42V38.68L56.33 37.87L54.72 35.93L53.34 33.94H51.22L48.45 35.66L48.4 35.86L47.55 39.18L45.93 44.35C45.93 44.35 45.36 47.17 44.01 49.15C43.47 49.94 42.72 50.54 42.11 50.95L41.58 54.6C41.58 54.6 33.99 61.21 33.03 62.04C33.99 61.13 39.11 54.53 39.11 54.53L41.44 50.68C42.24 48.61 44.04 43.68 44.04 43.68L46.67 37.84L45.19 37.25L44.23 37.01L44 37.29C43.88 37.64 43.17 39.69 43.33 40.01C43.51 40.36 42.14 42.33 42.05 42.59C41.96 42.86 39.61 45.46 39.34 45.63C39.12 45.78 38.42 45.2 38.18 44.99L37.11 44.6L36.53 45.27L31.27 52.9C31.41 53.21 32.14 54.89 31.96 55.52C31.75 56.21 32.4 57.47 31.96 58.75C31.53 60.03 27.14 66.98 27.14 66.98C27.14 66.98 27.34 65.27 27.8 64.01C28.26 62.75 29.41 60.91 29.41 60.1C29.41 59.3 31.25 58.38 30.9 57.81C30.59 57.29 30.23 54.93 30.16 54.49L27.34 58.58L27.13 59.07L26.36 59.92L24.03 63.51L21.56 75.35L9.46 78.97C9.7 78.84 17.5 74.73 17.76 74.73C18.02 74.73 19.35 72.52 19.35 72.52L23.24 63.33L24.16 62.21L22.11 58.51L18.28 56.27C18.28 56.27 18.17 56.57 17.97 56.77C16.87 58.57 13.2 64.62 13.2 64.91C13.2 65.25 12.4 67.51 12.17 68.85C11.94 70.19 8.26 72.78 8.26 72.78L-1.12 79.99L19.29 83.75C19.85 83.31 20.84 82.48 21.03 81.91C21.3 81.11 22.61 76.51 22.61 76.51L30.41 71.33L33.3 65.95C33.3 65.95 32.14 71.79 31.96 72.06C31.78 72.33 24.38 78.58 24.38 78.58L22.9 82.28L19.48 83.79L37.21 87.06C37.22 86.95 37.23 86.83 37.25 86.67C37.59 86.66 37.95 86.58 38.28 86.64C39.87 86.94 41.01 86.19 42.04 85.12C42.63 84.51 43.21 83.9 43.78 83.28C43.85 83.2 43.93 83.07 43.93 82.96C43.92 82.59 44.06 82.32 44.33 82.07C44.81 81.61 45.18 81.55 45.72 81.99C46.31 82.47 46.86 83 47.44 83.49C47.63 83.65 47.84 83.78 48.09 83.95C47.81 83.21 47.57 82.56 47.3 81.91C47.15 81.54 47.1 81.19 47.31 80.82C47.36 80.73 47.35 80.54 47.28 80.47C46.82 79.98 46.38 79.47 45.85 79.05C45.21 78.54 44.81 77.88 44.42 77.19C44.15 76.71 43.8 76.27 43.48 75.82C43.27 75.52 43.03 75.24 42.82 74.94C42.78 74.88 42.79 74.79 42.79 74.71C42.91 74.7 43.04 74.69 43.21 74.68C43.07 74.57 42.94 74.48 42.81 74.38C43.05 74.1 43.68 74.18 43.8 74.58C44.21 75.95 45.29 76.76 46.26 77.74C46.26 77.67 46.29 77.61 46.27 77.59C45.88 77.2 46.22 76.8 46.25 76.4C46.27 76.13 46.28 75.86 46.3 75.46C47.1 74.71 48.5 74.84 49.46 75.93C49.39 75.04 49.4 74.2 49.22 73.4C49.08 72.79 48.69 72.23 48.41 71.65C48.35 71.52 48.31 71.39 48.33 71.15C48.52 71.23 48.71 71.31 48.89 71.39C48.87 71.24 48.82 71.04 48.82 70.84C48.82 70.55 49.02 70.48 49.21 70.65C49.64 71.02 50.06 71.4 50.07 72.04C50.07 72.19 50.17 72.33 50.19 72.49C50.22 72.7 50.21 72.91 50.22 73.13C50.23 73.32 50.22 73.52 50.26 73.7C50.42 74.33 50.61 74.95 50.76 75.58C50.81 75.79 50.78 76.03 50.76 76.25C50.69 77.24 50.42 78.26 50.59 79.21C50.72 79.99 50.91 80.79 51.15 81.56C51.53 82.77 51.99 83.96 51.93 85.27C51.92 85.42 52.09 85.62 52.23 85.74C52.5 85.97 52.57 86.21 52.37 86.51C52.32 86.58 52.27 86.66 52.26 86.74C52.24 86.91 52.24 87.09 52.23 87.26C52.38 87.27 52.53 87.29 52.68 87.27C53.17 87.19 52.96 87.51 53.45 87.43C53.54 87.41 54.03 87.34 54.38 87.29L89.96 80.95C89.7 80.41 88.73 80.22 88.58 80.03ZM39.46 61.07C39.6 60.97 44.11 57.74 44.59 56.96C45.08 56.17 48.88 49.18 48.88 49.18L49.85 42.73L51.71 41.44L54.01 42.82L51.85 42.67L51 44.03V50.68L46.05 57.57L39.46 61.07ZM56.78 53.9C56.78 54.04 53.05 56.15 53.26 56.71C53.47 57.27 52.27 61 52.27 61L51.23 62.7L45.76 66.98L48.63 63.32V62.33L49.63 61.13L50.16 58.17L52.55 54.02L53.96 53.03L55.65 51.48L56.81 51.22L58.18 50.49C58.1 50.6 56.78 51.86 56.78 53.9ZM65.22 72.15C65.13 71.71 63.45 69.32 63.28 68.97C63.1 68.62 62.49 64.29 62.49 64.29C62.49 64.29 62.05 60.49 61.96 59.87C61.87 59.25 60.64 58.02 60.64 58.02C60.64 58.02 59.83 55.8 59.92 55.54L61.79 57.31L62.85 58.99C62.85 58.99 64.26 61.9 64.26 62.17C64.26 62.43 64.79 65.08 64.79 65.08L67.62 69.14L66.02 71L70.35 78.68C70.19 78.5 65.31 72.58 65.22 72.15Z" fill="#44243B"/>
<path d="M93.94 80.25L89.97 80.96C89.8 80.31 89.85 79.27 89.9 79.06C89.96 78.83 89.9 78.2 89.73 77.8C89.6 77.51 89.54 76.91 89.52 76.61C90.44 76.14 92.2 78.05 92.2 78.05L93.94 80.25Z" fill="#44243B"/>
<path d="M45.64 86.55C44.38 87.61 42.83 87.59 41.17 87.4C42.37 86.54 43.79 86.18 44.81 85.17C45.29 85.51 45.01 86.36 45.64 86.55Z" fill="#44243B"/>
<path d="M94.61 81.09V84.53L44.44 109.9L-1.88998 80.81L-1.62998 80.43L38.55 87.83C38.91 87.96 39.26 88.12 39.59 88.34C40.06 88.65 40.3 88.62 40.58 88.2L44.55 88.93L44.59 88.94L46.5 88.62L47.97 88.94L49.47 88.67C49.86 88.65 50.26 88.57 50.65 88.46L94.29 80.69L94.61 81.09Z" fill="#44243B"/>
<path d="M44.44 14.43C44.44 14.78 44.31 15.11 44.06 15.36C43.81 15.61 43.49 15.75 43.13 15.75H43.12C42.4 15.75 41.81 15.17 41.81 14.45L41.78 10.51C42.58 9.92 43.46 9.46 44.4 9.16L44.44 14.43Z" fill="#44243B"/>
<path d="M52.09 14.36C52.09 14.71 51.96 15.04 51.71 15.29C51.47 15.54 51.14 15.68 50.78 15.68H50.7701C50.0501 15.68 49.46 15.1 49.46 14.38L49.41 8.98999C50.35 9.21999 51.23 9.60999 52.05 10.13L52.09 14.36Z" fill="#44243B"/>
<path d="M56.26 18.36C56.11 20.89 54.9201 23.15 53.1101 24.7L53.05 18.36H56.26Z" fill="#44243B"/>
<path d="M52.18 25.4C51.38 25.93 50.5001 26.33 49.5601 26.59L49.4901 18.36H52.12L52.18 25.4Z" fill="#44243B"/>
<path d="M40.9601 24.42C40.9101 24.38 40.8601 24.33 40.8201 24.29C39.2001 22.7 38.2501 20.61 38.1201 18.36H40.9101L40.9601 24.42Z" fill="#44243B"/>
<path d="M44.53 26.5C43.59 26.21 42.7 25.77 41.89 25.19L41.83 18.35H44.45L44.53 26.5Z" fill="#44243B"/>
<path d="M48.6301 26.78C48.1901 26.85 47.7301 26.89 47.2701 26.89H47.1901C46.6101 26.89 46.0301 26.83 45.4701 26.73L45.4001 18.35H48.5701L48.6301 26.78Z" fill="#44243B"/>
<path d="M56.27 17.43H38.11C38.2 15.17 39.11 13.06 40.71 11.44C40.76 11.39 40.81 11.34 40.85 11.3L40.88 14.47C40.89 15.7 41.9 16.69 43.12 16.69H43.14C43.74 16.69 44.3 16.45 44.72 16.02C45.14 15.59 45.37 15.02 45.36 14.43L45.31 8.92C45.84 8.81 46.37 8.75 46.92 8.73C46.98 8.73 47.04 8.73 47.1 8.73H47.18C47.62 8.73 48.05 8.76 48.47 8.82L48.52 14.4C48.53 15.63 49.54 16.63 50.76 16.62H50.78C51.38 16.62 51.94 16.38 52.36 15.95C52.78 15.52 53.01 14.96 53 14.36L52.97 10.82C53.17 10.98 53.35 11.15 53.54 11.33C54.41 12.18 55.08 13.17 55.54 14.26C55.98 15.25 56.22 16.32 56.27 17.43Z" fill="#44243B"/>
</g>
<path d="M47.02 106.46C45.94 106.46 44.85 106.18 43.89 105.62L3.23001 82.15C1.30001 81.03 0.100006 78.95 0.100006 76.72V29.77C0.100006 27.54 1.30001 25.46 3.23001 24.34L43.89 0.869999C45.82 -0.250001 48.23 -0.250001 50.16 0.869999L90.82 24.34C92.75 25.46 93.95 27.54 93.95 29.77V76.72C93.95 78.95 92.75 81.03 90.82 82.15L50.16 105.62C49.19 106.18 48.11 106.46 47.02 106.46ZM47.02 0.909999C46.09 0.909999 45.16 1.15 44.33 1.63L3.67001 25.11C2.01001 26.07 0.980006 27.86 0.980006 29.78V76.73C0.980006 78.65 2.01001 80.44 3.67001 81.4L44.33 104.87C45.99 105.83 48.06 105.83 49.72 104.87L90.38 81.4C92.04 80.44 93.07 78.65 93.07 76.73V29.77C93.07 27.85 92.04 26.06 90.38 25.1L49.72 1.63C48.89 1.15 47.96 0.909999 47.02 0.909999Z" fill="#44243B"/>
</svg>
